<svg width="500" height="500" viewBox="0 0 500 500" fill="none" xmlns="http://www.w3.org/2000/svg">
<path d="M329 34.58C329 34.58 251.6 7.05998 175.63 50.88C99.66 94.7 61.3 181.67 28.38 251.34C-4.54003 321.01 14.38 391.89 72.38 424.2C130.38 456.51 169.81 408.88 251.17 406.56C332.53 404.24 354.44 415.87 422 369.91C489.56 323.95 501.71 215.4 448.46 135.09C395.21 54.78 329 34.58 329 34.58Z" fill="#01A76A"/>
<path opacity="0.7" d="M329 34.58C329 34.58 251.6 7.05998 175.63 50.88C99.66 94.7 61.3 181.67 28.38 251.34C-4.54003 321.01 14.38 391.89 72.38 424.2C130.38 456.51 169.81 408.88 251.17 406.56C332.53 404.24 354.44 415.87 422 369.91C489.56 323.95 501.71 215.4 448.46 135.09C395.21 54.78 329 34.58 329 34.58Z" fill="white"/>
<path d="M162 26V461" stroke="#676F74" stroke-linecap="round" stroke-linejoin="round"/>
<path d="M212 26V461" stroke="#676F74" stroke-linecap="round" stroke-linejoin="round"/>
<path d="M243 26V461" stroke="#676F74" stroke-linecap="round" stroke-linejoin="round"/>
<path d="M463 99H287V462H463V99Z" stroke="#676F74" stroke-linecap="round" stroke-linejoin="round"/>
<path d="M471.05 99H462.71V462H471.05V99Z" fill="#263238" stroke="#676F74" stroke-linecap="round" stroke-linejoin="round"/>
<path d="M462.85 132.72H287.19V137.56H462.85V132.72Z" stroke="#676F74" stroke-linecap="round" stroke-linejoin="round"/>
<path d="M287.53 143.2H462" stroke="#676F74" stroke-linecap="round" stroke-linejoin="round"/>
<path d="M313 101.63H291V132.63H313V101.63Z" stroke="#676F74" stroke-linecap="round" stroke-linejoin="round"/>
<path d="M315.33 101.63H313V132.63H315.33V101.63Z" stroke="#676F74" stroke-linecap="round" stroke-linejoin="round"/>
<path d="M340 101.63H318V132.63H340V101.63Z" stroke="#676F74" stroke-linecap="round" stroke-linejoin="round"/>
<path d="M342.33 101.63H340V132.63H342.33V101.63Z" stroke="#676F74" stroke-linecap="round" stroke-linejoin="round"/>
<path d="M365.12 107.16H347.04V132.64H365.12V107.16Z" stroke="#676F74" stroke-linecap="round" stroke-linejoin="round"/>
<path d="M367.04 107.16H365.12V132.64H367.04V107.16Z" stroke="#676F74" stroke-linecap="round" stroke-linejoin="round"/>
<path d="M394 101.63H372V132.63H394V101.63Z" stroke="#676F74" stroke-linecap="round" stroke-linejoin="round"/>
<path d="M396.33 101.63H394V132.63H396.33V101.63Z" stroke="#676F74" stroke-linecap="round" stroke-linejoin="round"/>
<path d="M421.41 107.16H403.33V132.64H421.41V107.16Z" stroke="#676F74" stroke-linecap="round" stroke-linejoin="round"/>
<path d="M423.34 107.16H421.42V132.64H423.34V107.16Z" stroke="#676F74" stroke-linecap="round" stroke-linejoin="round"/>
<path d="M448.41 107.16H430.33V132.64H448.41V107.16Z" stroke="#676F74" stroke-linecap="round" stroke-linejoin="round"/>
<path d="M450.34 107.16H448.42V132.64H450.34V107.16Z" stroke="#676F74" stroke-linecap="round" stroke-linejoin="round"/>
<path d="M462.85 184.72H287.19V189.56H462.85V184.72Z" stroke="#676F74" stroke-linecap="round" stroke-linejoin="round"/>
<path d="M287.53 195.2H462" stroke="#676F74" stroke-linecap="round" stroke-linejoin="round"/>
<path d="M312.81 151.1H289.01V184.63H312.81V151.1Z" stroke="#676F74" stroke-linecap="round" stroke-linejoin="round"/>
<path d="M315.33 151.1H312.81V184.63H315.33V151.1Z" stroke="#676F74" stroke-linecap="round" stroke-linejoin="round"/>
<path d="M340 153.63H318V184.63H340V153.63Z" stroke="#676F74" stroke-linecap="round" stroke-linejoin="round"/>
<path d="M342.33 153.63H340V184.63H342.33V153.63Z" stroke="#676F74" stroke-linecap="round" stroke-linejoin="round"/>
<path d="M367 153.63H345V184.63H367V153.63Z" stroke="#676F74" stroke-linecap="round" stroke-linejoin="round"/>
<path d="M369.33 153.63H367V184.63H369.33V153.63Z" stroke="#676F74" stroke-linecap="round" stroke-linejoin="round"/>
<path d="M393.68 154.09H372V184.64H393.68V154.09Z" stroke="#676F74" stroke-linecap="round" stroke-linejoin="round"/>
<path d="M395.98 154.09H393.68V184.64H395.98V154.09Z" stroke="#676F74" stroke-linecap="round" stroke-linejoin="round"/>
<path d="M421.25 156.94H401.6V184.63H421.25V156.94Z" stroke="#676F74" stroke-linecap="round" stroke-linejoin="round"/>
<path d="M423.33 156.94H421.25V184.63H423.33V156.94Z" stroke="#676F74" stroke-linecap="round" stroke-linejoin="round"/>
<path d="M452.44 147.37H426V184.63H452.44V147.37Z" stroke="#676F74" stroke-linecap="round" stroke-linejoin="round"/>
<path d="M455.24 147.37H452.44V184.63H455.24V147.37Z" stroke="#676F74" stroke-linecap="round" stroke-linejoin="round"/>
<path d="M462.85 236.72H287.19V241.56H462.85V236.72Z" stroke="#676F74" stroke-linecap="round" stroke-linejoin="round"/>
<path d="M287.53 247.2H462" stroke="#676F74" stroke-linecap="round" stroke-linejoin="round"/>
<path d="M313 205.63H291V236.63H313V205.63Z" stroke="#676F74" stroke-linecap="round" stroke-linejoin="round"/>
<path d="M315.33 205.63H313V236.63H315.33V205.63Z" stroke="#676F74" stroke-linecap="round" stroke-linejoin="round"/>
<path d="M340 205.63H318V236.63H340V205.63Z" stroke="#676F74" stroke-linecap="round" stroke-linejoin="round"/>
<path d="M342.33 205.63H340V236.63H342.33V205.63Z" stroke="#676F74" stroke-linecap="round" stroke-linejoin="round"/>
<path d="M367 205.63H345V236.63H367V205.63Z" stroke="#676F74" stroke-linecap="round" stroke-linejoin="round"/>
<path d="M369.33 205.63H367V236.63H369.33V205.63Z" stroke="#676F74" stroke-linecap="round" stroke-linejoin="round"/>
<path d="M394.24 208.84H374.51V236.64H394.24V208.84Z" stroke="#676F74" stroke-linecap="round" stroke-linejoin="round"/>
<path d="M396.33 208.84H394.24V236.64H396.33V208.84Z" stroke="#676F74" stroke-linecap="round" stroke-linejoin="round"/>
<path d="M421 205.63H399V236.63H421V205.63Z" stroke="#676F74" stroke-linecap="round" stroke-linejoin="round"/>
<path d="M423.33 205.63H421V236.63H423.33V205.63Z" stroke="#676F74" stroke-linecap="round" stroke-linejoin="round"/>
<path d="M448 205.63H426V236.63H448V205.63Z" stroke="#676F74" stroke-linecap="round" stroke-linejoin="round"/>
<path d="M450.33 205.63H448V236.63H450.33V205.63Z" stroke="#676F74" stroke-linecap="round" stroke-linejoin="round"/>
<path d="M462.85 288.72H287.19V293.56H462.85V288.72Z" stroke="#676F74" stroke-linecap="round" stroke-linejoin="round"/>
<path d="M287.53 299.2H462" stroke="#676F74" stroke-linecap="round" stroke-linejoin="round"/>
<path d="M313 257.63H291V288.63H313V257.63Z" stroke="#676F74" stroke-linecap="round" stroke-linejoin="round"/>
<path d="M315.33 257.63H313V288.63H315.33V257.63Z" stroke="#676F74" stroke-linecap="round" stroke-linejoin="round"/>
<path d="M340 257.63H318V288.63H340V257.63Z" stroke="#676F74" stroke-linecap="round" stroke-linejoin="round"/>
<path d="M342.33 257.63H340V288.63H342.33V257.63Z" stroke="#676F74" stroke-linecap="round" stroke-linejoin="round"/>
<path d="M367 257.63H345V288.63H367V257.63Z" stroke="#676F74" stroke-linecap="round" stroke-linejoin="round"/>
<path d="M369.33 257.63H367V288.63H369.33V257.63Z" stroke="#676F74" stroke-linecap="round" stroke-linejoin="round"/>
<path d="M394 257.63H372V288.63H394V257.63Z" stroke="#676F74" stroke-linecap="round" stroke-linejoin="round"/>
<path d="M396.33 257.63H394V288.63H396.33V257.63Z" stroke="#676F74" stroke-linecap="round" stroke-linejoin="round"/>
<path d="M421 257.63H399V288.63H421V257.63Z" stroke="#676F74" stroke-linecap="round" stroke-linejoin="round"/>
<path d="M423.33 257.63H421V288.63H423.33V257.63Z" stroke="#676F74" stroke-linecap="round" stroke-linejoin="round"/>
<path d="M448 257.63H426V288.63H448V257.63Z" stroke="#676F74" stroke-linecap="round" stroke-linejoin="round"/>
<path d="M450.33 257.63H448V288.63H450.33V257.63Z" stroke="#676F74" stroke-linecap="round" stroke-linejoin="round"/>
<path d="M462.85 340.72H287.19V345.56H462.85V340.72Z" stroke="#676F74" stroke-linecap="round" stroke-linejoin="round"/>
<path d="M287.53 351.2H462" stroke="#676F74" stroke-linecap="round" stroke-linejoin="round"/>
<path d="M313 309.63H291V340.63H313V309.63Z" stroke="#676F74" stroke-linecap="round" stroke-linejoin="round"/>
<path d="M315.33 309.63H313V340.63H315.33V309.63Z" stroke="#676F74" stroke-linecap="round" stroke-linejoin="round"/>
<path d="M340 309.63H318V340.63H340V309.63Z" stroke="#676F74" stroke-linecap="round" stroke-linejoin="round"/>
<path d="M342.33 309.63H340V340.63H342.33V309.63Z" stroke="#676F74" stroke-linecap="round" stroke-linejoin="round"/>
<path d="M367 309.63H345V340.63H367V309.63Z" stroke="#676F74" stroke-linecap="round" stroke-linejoin="round"/>
<path d="M369.33 309.63H367V340.63H369.33V309.63Z" stroke="#676F74" stroke-linecap="round" stroke-linejoin="round"/>
<path d="M394 309.63H372V340.63H394V309.63Z" stroke="#676F74" stroke-linecap="round" stroke-linejoin="round"/>
<path d="M396.33 309.63H394V340.63H396.33V309.63Z" stroke="#676F74" stroke-linecap="round" stroke-linejoin="round"/>
<path d="M421 309.63H399V340.63H421V309.63Z" stroke="#676F74" stroke-linecap="round" stroke-linejoin="round"/>
<path d="M423.33 309.63H421V340.63H423.33V309.63Z" stroke="#676F74" stroke-linecap="round" stroke-linejoin="round"/>
<path d="M448 309.63H426V340.63H448V309.63Z" stroke="#676F74" stroke-linecap="round" stroke-linejoin="round"/>
<path d="M450.33 309.63H448V340.63H450.33V309.63Z" stroke="#676F74" stroke-linecap="round" stroke-linejoin="round"/>
<path d="M462.85 392.72H287.19V397.56H462.85V392.72Z" stroke="#676F74" stroke-linecap="round" stroke-linejoin="round"/>
<path d="M287.53 403.2H462" stroke="#676F74" stroke-linecap="round" stroke-linejoin="round"/>
<path d="M313 361.63H291V392.63H313V361.63Z" stroke="#676F74" stroke-linecap="round" stroke-linejoin="round"/>
<path d="M315.33 361.63H313V392.63H315.33V361.63Z" stroke="#676F74" stroke-linecap="round" stroke-linejoin="round"/>
<path d="M340 361.63H318V392.63H340V361.63Z" stroke="#676F74" stroke-linecap="round" stroke-linejoin="round"/>
<path d="M342.33 361.63H340V392.63H342.33V361.63Z" stroke="#676F74" stroke-linecap="round" stroke-linejoin="round"/>
<path d="M367 361.63H345V392.63H367V361.63Z" stroke="#676F74" stroke-linecap="round" stroke-linejoin="round"/>
<path d="M369.33 361.63H367V392.63H369.33V361.63Z" stroke="#676F74" stroke-linecap="round" stroke-linejoin="round"/>
<path d="M394 361.63H372V392.63H394V361.63Z" stroke="#676F74" stroke-linecap="round" stroke-linejoin="round"/>
<path d="M396.33 361.63H394V392.63H396.33V361.63Z" stroke="#676F74" stroke-linecap="round" stroke-linejoin="round"/>
<path d="M421 361.63H399V392.63H421V361.63Z" stroke="#676F74" stroke-linecap="round" stroke-linejoin="round"/>
<path d="M423.33 361.63H421V392.63H423.33V361.63Z" stroke="#676F74" stroke-linecap="round" stroke-linejoin="round"/>
<path d="M448 361.63H426V392.63H448V361.63Z" stroke="#676F74" stroke-linecap="round" stroke-linejoin="round"/>
<path d="M450.33 361.63H448V392.63H450.33V361.63Z" stroke="#676F74" stroke-linecap="round" stroke-linejoin="round"/>
<path d="M462.85 444.72H287.19V449.56H462.85V444.72Z" stroke="#676F74" stroke-linecap="round" stroke-linejoin="round"/>
<path d="M287.53 455.2H462" stroke="#676F74" stroke-linecap="round" stroke-linejoin="round"/>
<path d="M313 413.63H291V444.63H313V413.63Z" stroke="#676F74" stroke-linecap="round" stroke-linejoin="round"/>
<path d="M315.33 413.63H313V444.63H315.33V413.63Z" stroke="#676F74" stroke-linecap="round" stroke-linejoin="round"/>
<path d="M340 413.63H318V444.63H340V413.63Z" stroke="#676F74" stroke-linecap="round" stroke-linejoin="round"/>
<path d="M342.33 413.63H340V444.63H342.33V413.63Z" stroke="#676F74" stroke-linecap="round" stroke-linejoin="round"/>
<path d="M367 413.63H345V444.63H367V413.63Z" stroke="#676F74" stroke-linecap="round" stroke-linejoin="round"/>
<path d="M369.33 413.63H367V444.63H369.33V413.63Z" stroke="#676F74" stroke-linecap="round" stroke-linejoin="round"/>
<path d="M394 413.63H372V444.63H394V413.63Z" stroke="#676F74" stroke-linecap="round" stroke-linejoin="round"/>
<path d="M396.33 413.63H394V444.63H396.33V413.63Z" stroke="#676F74" stroke-linecap="round" stroke-linejoin="round"/>
<path d="M421 413.63H399V444.63H421V413.63Z" stroke="#676F74" stroke-linecap="round" stroke-linejoin="round"/>
<path d="M423.33 413.63H421V444.63H423.33V413.63Z" stroke="#676F74" stroke-linecap="round" stroke-linejoin="round"/>
<path d="M448 413.63H426V444.63H448V413.63Z" stroke="#676F74" stroke-linecap="round" stroke-linejoin="round"/>
<path d="M450.33 413.63H448V444.63H450.33V413.63Z" stroke="#676F74" stroke-linecap="round" stroke-linejoin="round"/>
<path d="M194.12 205H179.88V268.33H194.12V205Z" fill="#263238" stroke="#263238" stroke-linecap="round" stroke-linejoin="round"/>
<path d="M229.34 179.67H144.67V243H229.34V179.67Z" fill="#263238" stroke="#263238" stroke-linecap="round" stroke-linejoin="round"/>
<path d="M222.88 184.49H151.12V238.17H222.88V184.49Z" fill="#E5E5E5" stroke="#263238" stroke-linecap="round" stroke-linejoin="round"/>
<path d="M278.28 449.13L277.13 462H229.93C229.93 462 228.79 456.85 231.36 454.85C233.93 452.85 243.36 451.13 245.36 450.56C247.36 449.99 251.36 446.84 251.36 446.84L278.28 449.13Z" fill="#263238" stroke="#263238" stroke-linecap="round" stroke-linejoin="round"/>
<path d="M277.381 459.06L277.131 462H229.931C229.744 461.045 229.664 460.072 229.691 459.1C243.221 459.05 268.791 459 277.381 459.06Z" fill="#919191" stroke="#263238" stroke-linecap="round" stroke-linejoin="round"/>
<path d="M278 314.69C278 314.69 276.57 348.44 276.57 357.31C276.57 366.18 283.72 382.77 284.01 392.49C284.3 402.21 279.14 443.41 279.14 443.41L257.69 443.12C257.69 443.12 256 426 255.39 409.66C254.78 393.32 248.24 353.88 246.81 340.72C245.38 327.56 242.23 313.54 242.23 313.54L278 314.69Z" fill="#263238" stroke="#263238" stroke-linecap="round" stroke-linejoin="round"/>
<path d="M281.71 440.55L279.99 449.99L257.68 448.84V438.26L281.71 440.55Z" fill="#919191" stroke="#263238" stroke-linecap="round" stroke-linejoin="round"/>
<path d="M284 292.09C284 292.09 281.42 304.96 280.28 310.68C279.14 316.4 273.41 331.57 273.13 338.14C272.85 344.71 270.55 369.61 270.55 383.34C270.55 397.07 269.98 400.5 267.12 412.23C264.26 423.96 261.4 442.84 261.4 442.84C257.093 442.944 252.785 442.656 248.53 441.98C243.894 441.294 239.43 439.74 235.37 437.4L235.08 431.97C235.08 431.97 233.65 424.24 233.08 421.97C232.51 419.7 236.51 409.38 236.51 408.24C236.51 407.1 233.37 403.37 232.22 397.65C231.07 391.93 227.07 358.18 227.07 353.31C227.07 348.44 225.36 314.7 225.36 314.7C225.36 314.7 221.92 292.96 221.92 290.38C221.92 287.8 268.55 287.52 276.27 286.95C283.99 286.38 286.57 287.8 284 292.09Z" fill="#919191" stroke="#263238" stroke-linecap="round" stroke-linejoin="round"/>
<path d="M244 298.38C244 298.38 250.29 308.68 257.73 311.83" stroke="#263238" stroke-linecap="round" stroke-linejoin="round"/>
<path d="M254.7 336.44L254.25 338.72" stroke="#263238" stroke-linecap="round" stroke-linejoin="round"/>
<path d="M261.97 299.53L255.5 332.39" stroke="#263238" stroke-linecap="round" stroke-linejoin="round"/>
<path d="M268 340.15C263.637 340.772 259.244 341.152 254.84 341.29H237.37L237.09 347.58C241.892 348.505 246.782 348.891 251.67 348.73C257.148 348.457 262.599 347.789 267.98 346.73L268 340.15Z" stroke="#263238" stroke-linecap="round" stroke-linejoin="round"/>
<path d="M268 346.73C268 346.73 267.43 357.88 267.71 366.18C267.99 374.48 264.57 375.9 260.85 375.9C257.13 375.9 240.54 377.9 238.25 376.19C235.96 374.48 235.1 369.9 235.96 366.19C236.82 362.48 237.11 347.59 237.11 347.59" stroke="#263238" stroke-linecap="round" stroke-linejoin="round"/>
<path d="M259.68 452L258.82 462H211.63C211.63 462 210.48 456.85 213.06 454.85C215.64 452.85 225.06 451.13 227.06 450.56C229.06 449.99 233.06 446.84 233.06 446.84L259.68 452Z" fill="#263238" stroke="#263238" stroke-linecap="round" stroke-linejoin="round"/>
<path d="M259.08 459.06L258.82 462H211.63C211.437 461.046 211.353 460.073 211.38 459.1C224.91 459.05 250.48 459 259.08 459.06Z" fill="white" stroke="#263238" stroke-linecap="round" stroke-linejoin="round"/>
<path d="M264.55 439.12C264.55 439.12 263.97 452.28 261.68 452.85C259.39 453.42 230.22 448.56 229.93 446.27C229.64 443.98 232.51 439.69 232.79 438.27C233.07 436.85 233.08 434.55 234.22 432.84C235.36 431.13 257.11 436.26 264.55 439.12Z" fill="white" stroke="#263238" stroke-linecap="round" stroke-linejoin="round"/>
<path d="M146.52 261.4C146.52 261.4 141.9 262.58 140.62 263.66C139.34 264.74 137.62 267.59 138.17 268.76C138.72 269.93 139.74 269.45 140.17 268.86C141.276 267.155 142.674 265.659 144.3 264.44C146.038 263.407 147.842 262.488 149.7 261.69C148.718 261.183 147.577 261.078 146.52 261.4Z" fill="#E5E5E5" stroke="#263238" stroke-linecap="round" stroke-linejoin="round"/>
<path d="M230.25 191.86L210.35 237.62C210.35 237.62 203.72 240.28 190.45 245.25C177.18 250.22 163.26 256.53 159.94 257.52C156.62 258.51 148.67 260.17 144.69 262.52C140.71 264.87 137.28 269.63 139.93 269.96C140.86 270.08 140.93 271.04 143.27 270.75C144.217 270.545 145.098 270.105 145.83 269.47C147.588 268.151 149.556 267.137 151.65 266.47C154.524 265.714 157.522 265.554 160.46 266C161.787 266.188 163.134 266.188 164.46 266C166.018 264.951 167.495 263.788 168.88 262.52C168.88 262.52 192.09 260.52 201.38 258.87C210.67 257.22 224.59 252.57 224.59 252.57L239.52 192.21L230.25 191.86Z" fill="white" stroke="#263238" stroke-linecap="round" stroke-linejoin="round"/>
<path d="M151.32 262.5C151.32 262.5 141.7 265.81 141.04 269.79" stroke="#263238" stroke-linecap="round" stroke-linejoin="round"/>
<path d="M168.9 262.5C167.49 263.883 165.93 265.104 164.25 266.14C161.93 267.47 158.95 266.81 156.63 268.14C154.31 269.47 153.63 270.46 150.99 270.14C148.35 269.82 148.33 267.49 151.65 266.5C153.149 266.126 154.597 265.568 155.96 264.84L157.96 262.52" fill="white"/>
<path d="M168.9 262.5C167.49 263.883 165.93 265.104 164.25 266.14C161.93 267.47 158.95 266.81 156.63 268.14C154.31 269.47 153.63 270.46 150.99 270.14C148.35 269.82 148.33 267.49 151.65 266.5C153.149 266.126 154.597 265.568 155.96 264.84L157.96 262.52" stroke="#263238" stroke-linecap="round" stroke-linejoin="round"/>
<path d="M183.45 208.62L116.88 209.94L107.66 268.51L189.38 269.17L183.45 208.62Z" fill="#01A76A" stroke="#263238" stroke-linecap="round" stroke-linejoin="round"/>
<path d="M175.56 268.51L178.19 208.62L144 249L116.88 209.94" stroke="#263238" stroke-linecap="round" stroke-linejoin="round"/>
<path d="M267.41 156.79C267.41 156.79 272.84 158.79 280.85 166.23C288.86 173.67 295.15 193.12 296.01 203.42C296.87 213.72 290.58 245.18 290.58 252.9C290.58 260.62 288.29 293.81 287.14 294.67C285.99 295.53 249.96 298.38 233.94 297.53C217.92 296.68 217.06 290.37 215.35 284.37C213.64 278.37 212.48 262.63 215.06 244.61C217.64 226.59 220.78 203.13 227.93 191.12C235.08 179.11 239.93 172.81 245.93 167.37C251.93 161.93 263.12 156.22 267.41 156.79Z" fill="#263238" stroke="#263238" stroke-linecap="round" stroke-linejoin="round"/>
<path d="M256.72 220.96L243.09 220.09V197.18L256.72 198.05V220.96Z" fill="#01A76A"/>
<path d="M251.5 193.99H248.89V200.95H251.5V193.99Z" fill="white" stroke="#263238" stroke-linecap="round" stroke-linejoin="round"/>
<path d="M253.82 216.12L245.99 215.36V203.47L253.82 204.23V216.12Z" fill="white"/>
<path d="M256.83 192.35L277.56 238.45L239.78 256.27C239.78 256.27 218.22 256.39 216.54 256.1C214.86 255.81 200.06 265.1 199.31 265.9C199.209 266.008 199.131 266.135 199.08 266.273C199.03 266.412 199.007 266.559 199.015 266.707C199.022 266.854 199.059 266.999 199.124 267.132C199.188 267.264 199.279 267.383 199.39 267.48C199.39 267.48 197.52 269.24 198.83 270.25L200.13 271.25C200.13 271.25 199.99 272.09 201.89 273.12C203.79 274.15 204.66 273.68 204.66 273.68C205.912 273.412 207.139 273.041 208.33 272.57C209.92 271.89 214.75 268.03 215.59 268.18C216.43 268.33 225.84 269.68 229.59 269.54C233.34 269.4 236.23 265.73 236.23 265.73C236.23 265.73 268.68 265.32 279.78 262.36C290.88 259.4 304.67 251.44 307.17 248.48C309.67 245.52 300.83 207.03 297.68 198.58C294.53 190.13 289.58 181.04 288.17 179.67" fill="#263238"/>
<path d="M256.83 192.35L277.56 238.45L239.78 256.27C239.78 256.27 218.22 256.39 216.54 256.1C214.86 255.81 200.06 265.1 199.31 265.9C199.209 266.008 199.131 266.135 199.08 266.273C199.03 266.412 199.007 266.559 199.015 266.707C199.022 266.854 199.059 266.999 199.124 267.132C199.188 267.264 199.279 267.383 199.39 267.48C199.39 267.48 197.52 269.24 198.83 270.25L200.13 271.25C200.13 271.25 199.99 272.09 201.89 273.12C203.79 274.15 204.66 273.68 204.66 273.68C205.912 273.412 207.139 273.041 208.33 272.57C209.92 271.89 214.75 268.03 215.59 268.18C216.43 268.33 225.84 269.68 229.59 269.54C233.34 269.4 236.23 265.73 236.23 265.73C236.23 265.73 268.68 265.32 279.78 262.36C290.88 259.4 304.67 251.44 307.17 248.48C309.67 245.52 300.83 207.03 297.68 198.58C294.53 190.13 289.58 181.04 288.17 179.67" stroke="#263238" stroke-linecap="round" stroke-linejoin="round"/>
<path d="M204.66 273.68C204.66 273.68 203.8 274.14 201.89 273.12C199.98 272.1 200.13 271.25 200.13 271.25L198.83 270.25C197.52 269.25 199.39 267.48 199.39 267.48C199.279 267.383 199.188 267.264 199.124 267.132C199.059 266.999 199.022 266.854 199.015 266.707C199.007 266.559 199.03 266.412 199.08 266.273C199.131 266.135 199.209 266.008 199.31 265.9C200.06 265.08 214.85 255.81 216.54 256.1C218.23 256.39 239.78 256.27 239.78 256.27L277.56 238.45L268.84 219.05L299.84 205.67C303.66 219.72 309.24 246.06 307.18 248.48C304.68 251.48 290.89 259.4 279.79 262.36C268.69 265.32 236.24 265.73 236.24 265.73C236.24 265.73 233.35 269.4 229.6 269.54C225.85 269.68 216.43 268.32 215.6 268.18C214.77 268.04 209.93 271.89 208.33 272.57C207.14 273.042 205.912 273.413 204.66 273.68Z" fill="white" stroke="#263238" stroke-linecap="round" stroke-linejoin="round"/>
<path d="M199.39 267.48L211.17 261.05" stroke="#263238" stroke-linecap="round" stroke-linejoin="round"/>
<path d="M200.49 270.89L211.55 263.5" stroke="#263238" stroke-linecap="round" stroke-linejoin="round"/>
<path d="M203.3 273.64C203.235 273.504 203.2 273.356 203.194 273.206C203.189 273.056 203.214 272.906 203.268 272.766C203.322 272.625 203.404 272.497 203.51 272.39C203.615 272.282 203.741 272.197 203.88 272.14C204.88 271.68 212.99 265.86 212.99 265.86" stroke="#263238" stroke-linecap="round" stroke-linejoin="round"/>
<path d="M237.19 164.17L242 167.85C242 167.85 233.23 184.85 237.19 185.68C241.15 186.51 254.74 168.42 259.83 162.47C264.92 156.52 267.41 156.79 267.41 156.79C267.41 156.79 261.25 149.79 258.98 144.36C256.71 138.93 255.59 135.59 255.59 135.59L237.19 164.17Z" fill="white" stroke="#263238" stroke-linecap="round" stroke-linejoin="round"/>
<path d="M220.94 120.15C220.94 120.15 220.46 142.48 221.09 146.42C221.72 150.36 227.17 161.3 229.24 163.66C231.31 166.02 239.78 166.36 242.86 164.52C245.94 162.68 253.78 152.67 255.17 148.73C256.012 146.371 256.526 143.908 256.7 141.41C256.7 141.41 261.62 142.65 264.4 136.81C267.18 130.97 264.4 126.35 260.74 126.6L257.61 128.11C257.61 128.11 261.9 116.98 259.2 112.69C256.5 108.4 232.55 110.54 227.62 111.32C222.69 112.1 220.94 120.15 220.94 120.15Z" fill="white" stroke="#263238" stroke-linecap="round" stroke-linejoin="round"/>
<path d="M238.72 133C238.72 133 242.07 130.49 245.41 132.44" stroke="#263238" stroke-linecap="round" stroke-linejoin="round"/>
<path d="M222.55 131.32C222.55 131.32 226.73 130.21 227.55 133.32" stroke="#263238" stroke-linecap="round" stroke-linejoin="round"/>
<path d="M226.24 132.66C226.24 132.949 226.155 133.231 225.994 133.471C225.834 133.711 225.606 133.898 225.339 134.009C225.072 134.119 224.779 134.148 224.495 134.092C224.212 134.036 223.952 133.897 223.748 133.692C223.544 133.488 223.405 133.228 223.348 132.945C223.292 132.662 223.321 132.368 223.431 132.101C223.542 131.834 223.729 131.606 223.969 131.446C224.209 131.286 224.492 131.2 224.78 131.2C225.167 131.203 225.537 131.357 225.81 131.63C226.083 131.904 226.238 132.274 226.24 132.66Z" fill="#263238"/>
<path d="M242.88 133.51C242.88 133.799 242.794 134.081 242.634 134.321C242.473 134.561 242.245 134.748 241.979 134.859C241.712 134.969 241.418 134.998 241.135 134.942C240.852 134.886 240.592 134.746 240.388 134.542C240.183 134.338 240.044 134.078 239.988 133.795C239.932 133.512 239.961 133.218 240.071 132.951C240.182 132.684 240.369 132.456 240.609 132.296C240.849 132.136 241.131 132.05 241.42 132.05C241.807 132.05 242.179 132.204 242.452 132.478C242.726 132.751 242.88 133.123 242.88 133.51Z" fill="#263238"/>
<path d="M241.22 121.37L246.84 122.86C247.036 122.909 247.219 122.999 247.377 123.124C247.536 123.248 247.666 123.405 247.761 123.583C247.855 123.761 247.911 123.957 247.924 124.158C247.938 124.359 247.91 124.561 247.84 124.75L247.7 125.13C247.569 125.485 247.305 125.776 246.963 125.94C246.622 126.104 246.23 126.129 245.87 126.01L240.4 124.14C240.217 124.078 240.048 123.981 239.904 123.852C239.759 123.724 239.642 123.568 239.559 123.394C239.476 123.219 239.429 123.03 239.42 122.837C239.412 122.644 239.443 122.451 239.51 122.27C239.633 121.935 239.876 121.657 240.192 121.491C240.508 121.324 240.874 121.281 241.22 121.37Z" fill="#263238" stroke="#263238" stroke-linecap="round" stroke-linejoin="round"/>
<path d="M228.8 122V122.09C228.866 122.234 228.901 122.39 228.905 122.548C228.909 122.706 228.88 122.863 228.821 123.01C228.762 123.156 228.674 123.29 228.562 123.401C228.451 123.513 228.317 123.601 228.17 123.66L224.27 125.22C224.106 125.285 223.929 125.312 223.753 125.3C223.577 125.288 223.406 125.236 223.252 125.149C223.099 125.061 222.967 124.941 222.866 124.795C222.765 124.65 222.698 124.484 222.67 124.31C222.632 124.052 222.679 123.789 222.806 123.561C222.932 123.333 223.131 123.153 223.37 123.05L227.23 121.4C227.373 121.335 227.527 121.299 227.683 121.294C227.839 121.289 227.995 121.316 228.141 121.371C228.287 121.427 228.421 121.512 228.534 121.619C228.647 121.727 228.738 121.857 228.8 122Z" fill="#263238" stroke="#263238" stroke-linecap="round" stroke-linejoin="round"/>
<path d="M242.77 143.16C242.77 143.16 240.37 148.37 233.49 147.93" stroke="#263238" stroke-linecap="round" stroke-linejoin="round"/>
<path d="M229.82 127.7C229.82 127.7 228.91 141.25 228.82 142.35C228.73 143.45 231.69 146.51 233.95 144.17C235.203 143.031 236.04 141.508 236.33 139.84" fill="white"/>
<path d="M229.82 127.7C229.82 127.7 228.91 141.25 228.82 142.35C228.73 143.45 231.69 146.51 233.95 144.17C235.203 143.031 236.04 141.508 236.33 139.84" stroke="#263238" stroke-linecap="round" stroke-linejoin="round"/>
<path d="M229.66 127.32C228.864 126.309 227.825 125.516 226.639 125.016C225.453 124.517 224.16 124.326 222.88 124.463C221.601 124.6 220.377 125.059 219.324 125.798C218.27 126.537 217.421 127.531 216.857 128.688C216.293 129.845 216.032 131.125 216.098 132.411C216.164 133.696 216.555 134.943 217.235 136.036C217.915 137.128 218.861 138.03 219.985 138.657C221.109 139.284 222.373 139.615 223.66 139.62C224.711 139.679 225.76 139.476 226.714 139.029C227.667 138.583 228.494 137.906 229.12 137.06L229.66 127.32Z" stroke="#263238" stroke-linecap="round" stroke-linejoin="round"/>
<path d="M242.04 139.62C246.238 139.62 249.64 136.217 249.64 132.02C249.64 127.823 246.238 124.42 242.04 124.42C237.843 124.42 234.44 127.823 234.44 132.02C234.44 136.217 237.843 139.62 242.04 139.62Z" stroke="#263238" stroke-linecap="round" stroke-linejoin="round"/>
<path d="M249.67 130.5L261.5 126.83" stroke="#263238" stroke-linecap="round" stroke-linejoin="round"/>
<path d="M216.17 131.17L220.67 130.33" stroke="#263238" stroke-linecap="round" stroke-linejoin="round"/>
<path d="M229.66 129C230.415 128.569 231.28 128.372 232.147 128.433C233.013 128.493 233.843 128.809 234.53 129.34" stroke="#263238" stroke-linecap="round" stroke-linejoin="round"/>
<path d="M258.461 99.6599C258.461 99.6599 268.381 106.84 266.251 114.6C264.121 122.36 258.051 137.15 258.051 137.15L256.401 137.41L255.841 131.77C255.841 131.77 250.261 130.64 250.511 125.88C250.643 123.069 251.351 120.316 252.591 117.79C252.591 117.79 247.691 123 241.001 123C234.311 123 230.051 115.64 228.171 118.64C226.291 121.64 222.931 123.86 215.451 121.35C207.971 118.84 195.931 102.55 202.701 96.4099C209.471 90.2699 222.891 98.2399 226.991 98.5999C231.091 98.9599 232.991 91.9099 242.301 93.1199C248.128 93.9947 253.665 96.2357 258.461 99.6599Z" fill="#263238" stroke="#263238" stroke-linecap="round" stroke-linejoin="round"/>
<path d="M288.4 265.76H74.2803V462.31H288.4V265.76Z" fill="white" stroke="#263238" stroke-linecap="round" stroke-linejoin="round"/>
<path d="M288.4 265.76H74.2803V278.99H288.4V265.76Z" fill="#263238" stroke="#263238" stroke-linecap="round" stroke-linejoin="round"/>
<path d="M288.4 265.76H220.65V462.31H288.4V265.76Z" stroke="#263238" stroke-linecap="round" stroke-linejoin="round"/>
<path d="M297.6 265.76H65.0801V273.29H297.6V265.76Z" fill="white" stroke="#263238" stroke-linecap="round" stroke-linejoin="round"/>
<path d="M297.59 265.76H212.28V273.29H297.59V265.76Z" fill="white" stroke="#263238" stroke-linecap="round" stroke-linejoin="round"/>
<path d="M336.761 180C336.761 180 336.571 174.9 334.411 171.37C332.251 167.84 324.411 165.29 320.301 167.06C318.216 167.914 316.185 168.896 314.221 170C318.314 171.283 322.208 173.131 325.791 175.49C329.099 177.73 332.833 179.265 336.761 180Z" fill="#01A76A" stroke="#263238" stroke-linecap="round" stroke-linejoin="round"/>
<path d="M345.001 182.57C345.001 182.57 340.291 178.06 339.511 171.78C338.731 165.5 345.391 155.71 345.391 155.71C347.594 159.896 349.367 164.295 350.681 168.84C352.651 175.9 345.001 182.57 345.001 182.57Z" fill="#01A76A" stroke="#263238" stroke-linecap="round" stroke-linejoin="round"/>
<path d="M354 180.61C354 180.61 352.82 174.73 355 170.61C357.18 166.49 362.84 166.88 368.53 168.61C374.22 170.34 375.981 170.37 375.981 170.37C372.059 172.998 367.925 175.292 363.62 177.23C360.494 178.572 357.28 179.701 354 180.61Z" fill="#01A76A" stroke="#263238" stroke-linecap="round" stroke-linejoin="round"/>
<path d="M345.05 201.74C344.915 201.74 344.785 201.686 344.689 201.591C344.594 201.495 344.54 201.365 344.54 201.23V173.23C344.563 173.114 344.626 173.011 344.717 172.936C344.808 172.861 344.922 172.82 345.04 172.82C345.158 172.82 345.272 172.861 345.363 172.936C345.454 173.011 345.517 173.114 345.54 173.23V201.23C345.54 201.362 345.489 201.489 345.398 201.584C345.306 201.679 345.182 201.735 345.05 201.74Z" fill="#263238"/>
<path d="M347.411 201.74H347.331C347.199 201.72 347.08 201.649 346.999 201.543C346.919 201.436 346.884 201.302 346.901 201.17C347.001 200.47 349.371 183.86 357.411 174.63C357.455 174.579 357.508 174.538 357.568 174.508C357.628 174.478 357.694 174.46 357.76 174.456C357.827 174.451 357.894 174.46 357.958 174.481C358.021 174.502 358.08 174.536 358.131 174.58C358.181 174.624 358.223 174.677 358.253 174.737C358.282 174.797 358.3 174.863 358.305 174.93C358.309 174.996 358.301 175.064 358.28 175.127C358.258 175.191 358.225 175.249 358.181 175.3C350.331 184.3 347.931 201.14 347.911 201.3C347.892 201.42 347.832 201.53 347.74 201.61C347.649 201.691 347.532 201.737 347.411 201.74Z" fill="#263238"/>
<path d="M342.7 201.34C342.634 201.34 342.568 201.327 342.506 201.301C342.445 201.275 342.39 201.238 342.343 201.19C342.296 201.143 342.26 201.086 342.235 201.024C342.211 200.963 342.199 200.897 342.2 200.83C342.2 200.67 342.28 184.71 332.78 177.12C332.674 177.035 332.606 176.912 332.591 176.777C332.576 176.642 332.615 176.506 332.7 176.4C332.785 176.294 332.909 176.226 333.044 176.211C333.179 176.196 333.314 176.235 333.42 176.32C343.3 184.23 343.22 200.17 343.22 200.84C343.219 200.907 343.204 200.973 343.178 201.034C343.151 201.096 343.112 201.151 343.064 201.198C343.015 201.244 342.958 201.281 342.896 201.305C342.834 201.329 342.767 201.341 342.7 201.34Z" fill="#263238"/>
<path d="M350.54 201.15H350.41C350.281 201.115 350.171 201.03 350.103 200.914C350.036 200.798 350.017 200.66 350.05 200.53C351.048 197.108 352.598 193.872 354.64 190.95C354.72 190.842 354.84 190.769 354.973 190.749C355.106 190.728 355.242 190.761 355.35 190.84C355.457 190.921 355.527 191.041 355.548 191.173C355.568 191.305 355.537 191.44 355.46 191.55C353.497 194.372 352.001 197.492 351.03 200.79C350.998 200.895 350.933 200.986 350.845 201.051C350.757 201.116 350.65 201.15 350.54 201.15Z" fill="#263238"/>
<path d="M353.63 193.35C353.63 193.35 353.43 187.86 355.78 187.08C358.13 186.3 360.29 188.25 362.06 189.43C363.83 190.61 365.78 191.78 365.78 195.31C365.579 198.673 365.121 202.016 364.41 205.31C364.41 205.31 362.41 199.23 359.12 196.49C355.83 193.75 353.63 193.35 353.63 193.35Z" fill="#01A76A" stroke="#263238" stroke-linecap="round" stroke-linejoin="round"/>
<path d="M339.171 201.34C339.063 201.344 338.957 201.312 338.87 201.248C338.783 201.185 338.72 201.094 338.69 200.99C337.665 198.056 335.898 195.438 333.56 193.39C333.476 193.301 333.426 193.184 333.42 193.061C333.415 192.938 333.454 192.817 333.531 192.72C333.608 192.624 333.717 192.559 333.838 192.537C333.959 192.514 334.085 192.537 334.19 192.6C336.694 194.762 338.578 197.551 339.65 200.68C339.672 200.744 339.681 200.811 339.676 200.878C339.671 200.945 339.652 201.01 339.622 201.07C339.591 201.13 339.548 201.183 339.496 201.226C339.445 201.269 339.385 201.301 339.32 201.32C339.272 201.336 339.221 201.343 339.171 201.34Z" fill="#263238"/>
<path d="M336.76 195.12C336.76 195.12 337.55 191.59 335.59 189.04C333.63 186.49 328.92 187.04 326.59 189.82C324.26 192.6 320.9 200.82 320.9 200.82C320.9 200.82 325.61 197.1 331.1 197.1C336.59 197.1 336.76 195.12 336.76 195.12Z" fill="#01A76A" stroke="#263238" stroke-linecap="round" stroke-linejoin="round"/>
<path d="M352.391 231.4H336.741L328.921 205.52H360.211L352.391 231.4Z" fill="white" stroke="#263238" stroke-linecap="round" stroke-linejoin="round"/>
<path d="M360.3 201.23H328.83V205.52H360.3V201.23Z" fill="white" stroke="#263238" stroke-linecap="round" stroke-linejoin="round"/>
<path d="M420.651 231.18H382.511V308.24H420.651V231.18Z" fill="#263238" stroke="#263238" stroke-linecap="round" stroke-linejoin="round"/>
<path d="M386.961 231.18H273.221V308.24H386.961V231.18Z" fill="white" stroke="#263238" stroke-linecap="round" stroke-linejoin="round"/>
<path d="M381.211 236.47H279.091V302.43H381.211V236.47Z" fill="#E5E5E5" stroke="#263238" stroke-linecap="round" stroke-linejoin="round"/>
<path d="M381.21 236.47H329.37V302.43H381.21V236.47Z" fill="#E5E5E5" stroke="#263238" stroke-linecap="round" stroke-linejoin="round"/>
<path d="M381.211 267.26H279.091V271.63H381.211V267.26Z" fill="white" stroke="#263238" stroke-linecap="round" stroke-linejoin="round"/>
<path d="M447.01 308.17H408.87V385.23H447.01V308.17Z" fill="#263238" stroke="#263238" stroke-linecap="round" stroke-linejoin="round"/>
<path d="M236.25 341.76L248.63 384.88H224.73L236.25 341.76Z" fill="#263238" stroke="#263238" stroke-linecap="round" stroke-linejoin="round"/>
<path d="M237.2 337.21L235.62 335.79L194.65 384.88H228.38L237.2 337.21Z" fill="white" stroke="#263238" stroke-linecap="round" stroke-linejoin="round"/>
<path d="M235.621 335.79H201.891L192.971 384.88H226.691L235.621 335.79Z" fill="#01A76A" stroke="#263238" stroke-linecap="round" stroke-linejoin="round"/>
<path d="M206.04 345.38H227.62" stroke="#263238" stroke-linecap="round" stroke-linejoin="round"/>
<path d="M204.65 350.95H226.22" stroke="#263238" stroke-linecap="round" stroke-linejoin="round"/>
<path d="M203.261 356.52H224.831" stroke="#263238" stroke-linecap="round" stroke-linejoin="round"/>
<path d="M413.31 308.17H241.96V385.23H413.31V308.17Z" fill="white" stroke="#263238" stroke-linecap="round" stroke-linejoin="round"/>
<path d="M407.581 313.46H247.841V379.42H407.581V313.46Z" fill="#E5E5E5" stroke="#263238" stroke-linecap="round" stroke-linejoin="round"/>
<path d="M407.58 313.46H286.15V379.42H407.58V313.46Z" fill="white" stroke="#263238" stroke-linecap="round" stroke-linejoin="round"/>
<path d="M407.571 313.46H291.881V379.42H407.571V313.46Z" fill="#E5E5E5" stroke="#263238" stroke-linecap="round" stroke-linejoin="round"/>
<path d="M407.58 313.46H332.71V379.42H407.58V313.46Z" fill="#E5E5E5" stroke="#263238" stroke-linecap="round" stroke-linejoin="round"/>
<path d="M407.571 313.46H362.011V379.42H407.571V313.46Z" fill="white" stroke="#263238" stroke-linecap="round" stroke-linejoin="round"/>
<path d="M407.58 313.46H367.75V379.42H407.58V313.46Z" fill="#E5E5E5" stroke="#263238" stroke-linecap="round" stroke-linejoin="round"/>
<path d="M475.691 384.94H437.551V462H475.691V384.94Z" fill="#263238" stroke="#263238" stroke-linecap="round" stroke-linejoin="round"/>
<path d="M441.99 384.94H185.69V462H441.99V384.94Z" fill="white" stroke="#263238" stroke-linecap="round" stroke-linejoin="round"/>
<path d="M436.26 390.23H191.57V456.19H436.26V390.23Z" fill="#E5E5E5" stroke="#263238" stroke-linecap="round" stroke-linejoin="round"/>
<path d="M436.26 390.23H260.24V456.19H436.26V390.23Z" fill="#E5E5E5" stroke="#263238" stroke-linecap="round" stroke-linejoin="round"/>
<path d="M436.261 390.23H280.681V456.19H436.261V390.23Z" fill="white" stroke="#263238" stroke-linecap="round" stroke-linejoin="round"/>
<path d="M436.26 390.23H286.41V456.19H436.26V390.23Z" fill="#E5E5E5" stroke="#263238" stroke-linecap="round" stroke-linejoin="round"/>
<path d="M436.26 390.23H324.4V456.19H436.26V390.23Z" fill="#E5E5E5" stroke="#263238" stroke-linecap="round" stroke-linejoin="round"/>
<path d="M436.25 390.23H358.82V456.19H436.25V390.23Z" fill="white" stroke="#263238" stroke-linecap="round" stroke-linejoin="round"/>
<path d="M436.26 390.23H365.28V456.19H436.26V390.23Z" fill="#E5E5E5" stroke="#263238" stroke-linecap="round" stroke-linejoin="round"/>
<path d="M436.26 390.23H402.87V456.19H436.26V390.23Z" fill="#E5E5E5" stroke="#263238" stroke-linecap="round" stroke-linejoin="round"/>
<path d="M433.191 264.71L445.571 307.82H421.671L433.191 264.71Z" fill="#787878" stroke="#263238" stroke-linecap="round" stroke-linejoin="round"/>
<path d="M434.141 260.16L432.561 258.73L391.591 307.82H425.321L434.141 260.16Z" fill="white" stroke="#263238" stroke-linecap="round" stroke-linejoin="round"/>
<path d="M432.56 258.73H398.83L389.9 307.82H423.63L432.56 258.73Z" fill="#01A76A" stroke="#263238" stroke-linecap="round" stroke-linejoin="round"/>
<path d="M403.311 266.41H424.881" stroke="#263238" stroke-linecap="round" stroke-linejoin="round"/>
<path d="M401.921 271.97H423.491" stroke="#263238" stroke-linecap="round" stroke-linejoin="round"/>
<path d="M400.53 277.54H422.1" stroke="#263238" stroke-linecap="round" stroke-linejoin="round"/>
<path d="M341.43 335.68L353.81 378.8H329.91L341.43 335.68Z" fill="#263238" stroke="#263238" stroke-linecap="round" stroke-linejoin="round"/>
<path d="M342.38 331.13L340.8 329.7L299.83 378.8H333.56L342.38 331.13Z" fill="white" stroke="#263238" stroke-linecap="round" stroke-linejoin="round"/>
<path d="M340.801 329.7H307.071L298.141 378.8H331.871L340.801 329.7Z" fill="#01A76A" stroke="#263238" stroke-linecap="round" stroke-linejoin="round"/>
<path d="M311.161 357.59L311.261 357.5L311.711 358.07L316.981 353.68L315.921 352.35L310.791 356.61L310.241 355.13L309.241 356.39L306.091 352.44L304.481 353.77L307.921 358.09L305.921 360.65L302.511 363.49L303.571 364.82L305.321 363.38L303.831 370.69H310.311L311.831 363.17L313.191 364.88L314.801 363.54L312.121 360.17L311.161 357.59ZM312.871 362.52L313.301 362.16L313.831 362.82L313.391 363.18L312.871 362.52ZM313.151 363.39L312.711 363.75L312.191 363.09L312.621 362.73L313.151 363.39ZM312.701 362.32L312.181 361.66L312.621 361.3L313.141 361.96L312.701 362.32ZM306.001 360.93H306.731L306.291 361.29H306.061L305.861 361.04L306.001 360.93ZM307.111 360.93L307.381 361.27H306.701L307.111 360.93ZM305.731 361.37L305.641 361.81L305.121 362.25L304.831 361.89L305.621 361.23L305.731 361.37ZM305.561 362.22L305.461 362.68L305.281 362.45L305.561 362.22ZM304.871 362.45L304.081 363.11L303.791 362.75L304.581 362.09L304.871 362.45ZM305.031 362.66L305.321 363.02L304.531 363.68L304.241 363.31L305.031 362.66ZM307.641 361.09L307.501 360.91H307.861L307.641 361.09ZM310.931 360.91L310.651 361.14L310.461 360.91H310.931ZM311.251 360.99L311.481 361.27H310.901L311.251 360.99ZM312.251 361.27H311.921L311.631 360.91H312.351L312.481 361.08L312.251 361.27ZM311.541 357.27L312.341 356.61L312.631 356.97L311.831 357.64L311.541 357.27ZM314.661 354.68L315.451 354.02L315.741 354.38L314.951 355.04L314.661 354.68ZM314.661 355.24L313.871 355.9L313.581 355.54L314.381 354.88L314.661 355.24ZM314.461 354.47L314.171 354.11L314.961 353.45L315.251 353.82L314.461 354.47ZM314.211 354.68L313.421 355.34L313.131 354.97L313.921 354.32L314.211 354.68ZM313.211 355.54L312.411 356.2L312.131 355.84L312.921 355.18L313.211 355.54ZM313.371 355.74L313.661 356.11L312.871 356.76L312.581 356.4L313.371 355.74ZM316.001 354.2L315.711 353.84L316.331 353.32L316.621 353.68L316.001 354.2ZM316.161 353.12L315.551 353.63L315.261 353.27L315.881 352.76L316.161 353.12ZM311.901 356.06L312.191 356.42L311.391 357.09L311.101 356.73L311.901 356.06ZM311.141 357.29L311.081 357.13L311.141 357.29ZM308.731 357.11L308.251 356.51L308.691 356.15L309.091 356.65L308.731 357.11ZM306.731 354.58L306.201 353.92L306.641 353.56L307.161 354.22L306.731 354.58ZM307.321 354.42L307.851 355.08L307.411 355.44L306.891 354.79L307.321 354.42ZM306.481 354.79L306.041 355.15L305.521 354.49L305.961 354.13L306.481 354.79ZM306.641 354.99L307.171 355.65L306.731 356.01L306.211 355.35L306.641 354.99ZM307.331 355.85L307.851 356.51L307.421 356.87L306.891 356.21L307.331 355.85ZM307.581 355.65L308.011 355.29L308.541 355.94L308.101 356.31L307.581 355.65ZM306.471 353.36L306.041 353.72L305.631 353.21L306.061 352.84L306.471 353.36ZM305.381 353.41L305.791 353.92L305.361 354.29L304.951 353.77L305.381 353.41ZM308.111 357.75L307.581 357.08L308.021 356.72L308.541 357.37L308.491 357.43L308.111 357.75ZM303.541 363L303.831 363.36L303.211 363.88L302.931 363.52L303.541 363ZM303.381 364.08L304.001 363.57L304.281 363.93L303.671 364.45L303.381 364.08ZM307.831 361.32L308.271 360.96H310.051L310.341 361.32H307.831ZM312.071 362.07L312.461 362.55L312.021 362.92L311.931 362.79L312.071 362.07ZM312.871 363.98L313.311 363.62L313.721 364.14L313.281 364.5L312.871 363.98ZM313.961 363.93L313.551 363.42L314.001 363L314.411 363.52L313.961 363.93Z" fill="white"/>
<path d="M327.831 352.92L327.971 352.8L328.591 353.57L335.741 347.62L334.291 345.81L327.291 351.59L326.531 349.59L325.201 351.31L321.001 345.93L318.821 347.74L323.481 353.6L320.771 357.08L316.141 360.92L317.591 362.73L319.951 360.73L317.951 370.65H326.731L328.801 360.45L330.641 362.76L332.821 360.95L329.191 356.38L327.831 352.92ZM330.151 359.61L330.741 359.12L331.451 360.02L330.861 360.51L330.151 359.61ZM330.531 360.78L329.941 361.27L329.231 360.38L329.821 359.89L330.531 360.78ZM329.931 359.34L329.221 358.44L329.811 357.95L330.521 358.85L329.931 359.34ZM320.841 357.45H321.841L321.251 357.94H320.941L320.671 357.61L320.841 357.45ZM322.341 357.45L322.711 357.91H321.781L322.341 357.45ZM320.471 358.04L320.351 358.65L319.641 359.24L319.251 358.75L320.321 357.85L320.471 358.04ZM320.231 359.2L320.111 359.83L319.861 359.51L320.231 359.2ZM319.301 359.51L318.231 360.41L317.841 359.91L318.911 359.02L319.301 359.51ZM319.531 359.79L319.921 360.28L318.841 361.17L318.451 360.68L319.531 359.79ZM323.061 357.67L322.871 357.42H323.361L323.061 357.67ZM327.521 357.42L327.141 357.74L326.891 357.42H327.521ZM327.951 357.52L328.271 357.91H327.481L327.951 357.52ZM329.271 357.91H328.821L328.431 357.42H329.431L329.611 357.65L329.271 357.91ZM328.271 352.49L329.361 351.58L329.751 352.07L328.661 352.98L328.271 352.49ZM332.501 348.97L333.581 348.08L333.971 348.57L332.901 349.46L332.501 348.97ZM332.561 349.74L331.491 350.63L331.101 350.14L332.171 349.25L332.561 349.74ZM332.281 348.74L331.891 348.25L332.961 347.36L333.361 347.85L332.281 348.74ZM332.001 349L330.931 349.89L330.541 349.4L331.611 348.51L332.001 349ZM330.591 350.17L329.521 351.06L329.131 350.57L330.201 349.68L330.591 350.17ZM330.811 350.44L331.211 350.94L330.131 351.83L329.741 351.34L330.811 350.44ZM334.351 348.32L333.961 347.83L334.801 347.13L335.191 347.62L334.351 348.32ZM334.581 346.85L333.741 347.55L333.351 347.06L334.191 346.36L334.581 346.85ZM328.801 350.85L329.191 351.34L328.101 352.24L327.711 351.75L328.801 350.85ZM327.801 352.52H327.751L327.671 352.31L327.801 352.52ZM324.541 352.27L323.891 351.46L324.481 350.97L325.021 351.65L324.541 352.27ZM321.801 348.84L321.001 348L321.591 347.51L322.301 348.4L321.801 348.84ZM322.621 348.63L323.331 349.52L322.741 350.01L322.021 349.12L322.621 348.63ZM321.471 349.12L320.881 349.61L320.171 348.72L320.761 348.23L321.471 349.12ZM321.691 349.4L322.401 350.29L321.811 350.78L321.101 349.89L321.691 349.4ZM322.621 350.56L323.331 351.46L322.741 351.95L322.031 351.06L322.621 350.56ZM322.961 350.29L323.551 349.8L324.261 350.69L323.671 351.18L322.961 350.29ZM321.461 347.18L320.871 347.67L320.321 346.98L320.911 346.48L321.461 347.18ZM319.981 347.25L320.541 347.95L319.951 348.44L319.391 347.74L319.981 347.25ZM323.691 353.13L322.961 352.22L323.551 351.73L324.261 352.62L324.191 352.71L323.691 353.13ZM317.561 360.22L317.951 360.71L317.111 361.41L316.721 360.92L317.561 360.22ZM317.331 361.69L318.171 360.99L318.561 361.48L317.721 362.18L317.331 361.69ZM323.331 357.94L323.921 357.45H326.351L326.741 357.94H323.331ZM329.081 358.94L329.611 359.59L329.021 360.09L328.881 359.92L329.081 358.94ZM330.171 361.53L330.761 361.04L331.321 361.74L330.731 362.23L330.171 361.53ZM331.651 361.46L331.091 360.76L331.681 360.27L332.241 360.97L331.651 361.46Z" fill="white"/>
<path d="M337.441 341.9C337.381 341.16 336.371 340.56 335.051 340.46C335.097 340.253 335.124 340.042 335.131 339.83C335.131 337.6 332.971 335.83 330.301 335.83C329.249 335.767 328.207 336.064 327.346 336.671C326.485 337.277 325.856 338.159 325.561 339.17C325.391 339.16 325.221 339.16 325.051 339.17C324.42 339.124 323.794 339.299 323.278 339.663C322.762 340.028 322.388 340.561 322.221 341.17C321.732 340.742 321.105 340.507 320.456 340.507C319.806 340.507 319.179 340.742 318.691 341.17C318.237 341.032 317.765 340.964 317.291 340.97C316.151 340.97 315.221 341.3 315.221 341.71C315.231 341.804 315.278 341.89 315.351 341.95L337.441 341.9Z" fill="white"/>
<path d="M317.67 345.2C317.67 344.87 317.2 344.61 316.62 344.56C316.625 344.47 316.625 344.38 316.62 344.29C316.565 343.777 316.313 343.306 315.918 342.974C315.523 342.642 315.015 342.476 314.5 342.51C314.037 342.482 313.578 342.612 313.198 342.879C312.819 343.147 312.541 343.535 312.41 343.98H312.19C311.913 343.96 311.637 344.037 311.409 344.198C311.181 344.358 311.016 344.592 310.94 344.86C310.726 344.671 310.451 344.566 310.165 344.566C309.88 344.566 309.604 344.671 309.39 344.86C309.189 344.803 308.98 344.777 308.77 344.78C308.27 344.78 307.86 344.92 307.86 345.1C307.862 345.122 307.868 345.143 307.878 345.162C307.889 345.18 307.903 345.197 307.92 345.21L317.67 345.2Z" fill="white"/>
<path d="M338.9 412.74L351.28 455.86H327.37L338.9 412.74Z" fill="#263238" stroke="#263238" stroke-linecap="round" stroke-linejoin="round"/>
<path d="M339.84 408.19L338.26 406.76L297.29 455.86H331.02L339.84 408.19Z" fill="white" stroke="#263238" stroke-linecap="round" stroke-linejoin="round"/>
<path d="M338.26 406.76H304.54L295.61 455.86H329.34L338.26 406.76Z" fill="white" stroke="#263238" stroke-linecap="round" stroke-linejoin="round"/>
<path d="M329.89 419.35H307.05L301 452.6H323.85L329.89 419.35Z" fill="#01A76A"/>
<path d="M308.701 411.98L307.761 417.12H330.611L331.541 411.98H308.701Z" fill="#01A76A"/>
<path d="M265.39 412.74L277.77 455.86H253.86L265.39 412.74Z" fill="#263238" stroke="#263238" stroke-linecap="round" stroke-linejoin="round"/>
<path d="M266.33 408.19L264.75 406.76L223.78 455.86H257.51L266.33 408.19Z" fill="white" stroke="#263238" stroke-linecap="round" stroke-linejoin="round"/>
<path d="M264.751 406.76H231.031L222.101 455.86H255.831L264.751 406.76Z" fill="white" stroke="#263238" stroke-linecap="round" stroke-linejoin="round"/>
<path d="M252.31 424.38C251.902 425.813 251.215 427.151 250.288 428.318C249.361 429.485 248.214 430.458 246.91 431.18C242.51 433.58 235.71 430.18 230.3 434.99C224.89 439.8 224.7 449.99 236.11 451.19C247.52 452.39 249.91 443.79 249.91 443.79C249.91 443.79 255.12 444.79 254.91 443.19C254.7 441.59 251.3 440.39 251.3 440.39C252.8 437.895 253.694 435.083 253.91 432.18C254.04 427.88 253.91 424.98 253.91 424.98C253.91 424.98 256.71 425.58 257.71 424.98C258.71 424.38 260.71 418.78 260.71 418.78C260.71 418.78 257.31 421.18 255.71 421.18C254.11 421.18 249.9 417.78 249.9 417.78C249.9 417.78 249.11 424.38 252.31 424.38Z" fill="#01A76A"/>
<path d="M232.991 411.64L232.061 416.78H254.901L255.841 411.64H232.991Z" fill="#01A76A"/>
<path d="M231.64 419.08L230.71 424.21H244.43L245.36 419.08H231.64Z" fill="#01A76A"/>
<path d="M414.941 412.74L427.321 455.86H403.421L414.941 412.74Z" fill="#263238" stroke="#263238" stroke-linecap="round" stroke-linejoin="round"/>
<path d="M415.891 408.19L414.311 406.76L373.341 455.86H407.061L415.891 408.19Z" fill="white" stroke="#263238" stroke-linecap="round" stroke-linejoin="round"/>
<path d="M414.31 406.76H380.58L371.65 455.86H405.38L414.31 406.76Z" fill="#01A76A" stroke="#263238" stroke-linecap="round" stroke-linejoin="round"/>
<path d="M389.501 421.13C389.586 421.996 389.406 422.868 388.986 423.63C388.566 424.392 387.925 425.01 387.148 425.401C386.37 425.792 385.492 425.938 384.63 425.821C383.768 425.703 382.961 425.327 382.316 424.743C381.671 424.158 381.219 423.392 381.018 422.545C380.817 421.698 380.877 420.811 381.19 419.999C381.504 419.187 382.055 418.489 382.773 417.996C383.491 417.504 384.341 417.24 385.211 417.24C386.295 417.188 387.356 417.569 388.16 418.298C388.964 419.027 389.446 420.046 389.501 421.13Z" fill="white"/>
<path d="M398.701 428.28C398.79 429.149 398.613 430.024 398.194 430.791C397.775 431.558 397.134 432.179 396.355 432.574C395.576 432.969 394.695 433.118 393.829 433.002C392.963 432.886 392.153 432.51 391.505 431.924C390.857 431.338 390.402 430.569 390.2 429.72C389.998 428.87 390.058 427.979 390.373 427.164C390.688 426.349 391.242 425.649 391.963 425.155C392.684 424.662 393.537 424.398 394.411 424.4C395.493 424.348 396.552 424.727 397.356 425.454C398.16 426.182 398.644 427.197 398.701 428.28Z" fill="white"/>
<path d="M405.001 422.39C405.071 423.111 404.922 423.837 404.573 424.472C404.223 425.106 403.69 425.621 403.042 425.946C402.395 426.272 401.664 426.395 400.946 426.298C400.228 426.2 399.556 425.888 399.019 425.402C398.482 424.915 398.104 424.278 397.936 423.573C397.768 422.868 397.817 422.129 398.077 421.452C398.337 420.776 398.795 420.194 399.392 419.783C399.989 419.372 400.696 419.151 401.421 419.15C402.325 419.106 403.209 419.423 403.88 420.03C404.551 420.638 404.954 421.486 405.001 422.39Z" fill="white"/>
<path d="M385.93 447.58C390.387 447.58 394 444.312 394 440.28C394 436.248 390.387 432.98 385.93 432.98C381.473 432.98 377.86 436.248 377.86 440.28C377.86 444.312 381.473 447.58 385.93 447.58Z" fill="white"/>
<path d="M254.4 327.99H249.771V379.49H254.4V327.99Z" fill="#01A76A" stroke="#263238" stroke-linecap="round" stroke-linejoin="round"/>
<path d="M278.45 327.99H253.16V379.49H278.45V327.99Z" fill="#01A76A" stroke="#263238" stroke-linecap="round" stroke-linejoin="round"/>
<path d="M259.641 327.99H255.011V379.49H259.641V327.99Z" fill="white" stroke="#263238" stroke-linecap="round" stroke-linejoin="round"/>
<path d="M283.7 327.99H258.41V379.49H283.7V327.99Z" fill="white" stroke="#263238" stroke-linecap="round" stroke-linejoin="round"/>
<path d="M264.891 327.99H260.261V379.49H264.891V327.99Z" fill="white" stroke="#263238" stroke-linecap="round" stroke-linejoin="round"/>
<path d="M285.85 327.99H263.65V379.49H285.85V327.99Z" fill="white" stroke="#263238" stroke-linecap="round" stroke-linejoin="round"/>
<path d="M270.13 327.99H265.5V379.49H270.13V327.99Z" fill="#01A76A" stroke="#263238" stroke-linecap="round" stroke-linejoin="round"/>
<path d="M286.161 327.99H268.891V379.49H286.161V327.99Z" fill="#01A76A" stroke="#263238" stroke-linecap="round" stroke-linejoin="round"/>
<path d="M373.13 327.99H368.5V379.49H373.13V327.99Z" fill="white" stroke="#263238" stroke-linecap="round" stroke-linejoin="round"/>
<path d="M397.19 327.99H371.9V379.49H397.19V327.99Z" fill="white" stroke="#263238" stroke-linecap="round" stroke-linejoin="round"/>
<path d="M378.38 327.99H373.75V379.49H378.38V327.99Z" fill="#01A76A" stroke="#263238" stroke-linecap="round" stroke-linejoin="round"/>
<path d="M402.431 327.99H377.141V379.49H402.431V327.99Z" fill="#01A76A" stroke="#263238" stroke-linecap="round" stroke-linejoin="round"/>
<path d="M383.62 327.99H378.99V379.49H383.62V327.99Z" fill="#01A76A" stroke="#263238" stroke-linecap="round" stroke-linejoin="round"/>
<path d="M404.581 327.99H382.381V379.49H404.581V327.99Z" fill="#01A76A" stroke="#263238" stroke-linecap="round" stroke-linejoin="round"/>
<path d="M388.86 327.99H384.23V379.49H388.86V327.99Z" fill="white" stroke="#263238" stroke-linecap="round" stroke-linejoin="round"/>
<path d="M407.681 327.99H387.631V379.49H407.681V327.99Z" fill="white" stroke="#263238" stroke-linecap="round" stroke-linejoin="round"/>
<path d="M302.97 276.53H286.32V302.26H302.97V276.53Z" fill="white" stroke="#263238" stroke-linecap="round" stroke-linejoin="round"/>
<path d="M299.421 276.53H282.771V302.26H299.421V276.53Z" fill="white" stroke="#263238" stroke-linecap="round" stroke-linejoin="round"/>
<path d="M344.241 292.04H309.431V302.26H344.241V292.04Z" fill="white" stroke="#263238" stroke-linecap="round" stroke-linejoin="round"/>
<path d="M344.25 288.14H308.19V295.33H344.25V288.14Z" fill="#263238" stroke="#263238" stroke-linecap="round" stroke-linejoin="round"/>
<path d="M365.571 292.04H344.381V302.26H365.571V292.04Z" fill="white" stroke="#263238" stroke-linecap="round" stroke-linejoin="round"/>
<path d="M367.361 288.14H344.381V295.33H367.361V288.14Z" fill="#263238" stroke="#263238" stroke-linecap="round" stroke-linejoin="round"/>
<path d="M345.29 263.34H285.33V267.27H345.29V263.34Z" fill="#263238" stroke="#263238" stroke-linecap="round" stroke-linejoin="round"/>
<path d="M347.781 263.34H321.881V267.27H347.781V263.34Z" fill="white" stroke="#263238" stroke-linecap="round" stroke-linejoin="round"/>
<path d="M345.29 259.33H285.33V263.26H345.29V259.33Z" fill="white" stroke="#263238" stroke-linecap="round" stroke-linejoin="round"/>
<path d="M347.781 259.33H321.881V263.26H347.781V259.33Z" fill="white" stroke="#263238" stroke-linecap="round" stroke-linejoin="round"/>
<path d="M345.29 255.31H285.33V259.24H345.29V255.31Z" fill="#01A76A" stroke="#263238" stroke-linecap="round" stroke-linejoin="round"/>
<path d="M347.781 255.31H321.881V259.24H347.781V255.31Z" fill="white" stroke="#263238" stroke-linecap="round" stroke-linejoin="round"/>
<path d="M345.29 251.3H285.33V255.23H345.29V251.3Z" fill="white" stroke="#263238" stroke-linecap="round" stroke-linejoin="round"/>
<path d="M347.781 251.3H321.881V255.23H347.781V251.3Z" fill="white" stroke="#263238" stroke-linecap="round" stroke-linejoin="round"/>
<path d="M345.29 247.28H285.33V251.21H345.29V247.28Z" fill="#01A76A" stroke="#263238" stroke-linecap="round" stroke-linejoin="round"/>
<path d="M347.781 247.28H321.881V251.21H347.781V247.28Z" fill="white" stroke="#263238" stroke-linecap="round" stroke-linejoin="round"/>
<path d="M56.76 349.28C56.76 349.28 59.69 364.17 59.69 369.75C59.69 375.33 56 385.43 56 397.4C56 409.37 59.42 441 59.42 441L72.18 441.53C72.18 441.53 75.9 402.72 79.89 393.68C83.88 384.64 85.47 365.76 85.47 360.44C85.6113 356.564 86.2361 352.721 87.33 349L56.76 349.28Z" fill="#263238" stroke="#263238" stroke-linecap="round" stroke-linejoin="round"/>
<path d="M53.5693 431.16H74.8393L74.5693 447.65C74.5693 447.65 86.7993 455.36 89.7293 456.42C92.6593 457.48 94.2493 459.88 93.9793 460.67C93.7093 461.46 92.3893 462 92.3893 462H55.6993C54.9243 459.878 54.6505 457.605 54.8993 455.36C55.307 453.183 55.93 451.053 56.7593 449L53.5693 431.16Z" fill="#01A76A" stroke="#263238" stroke-linecap="round" stroke-linejoin="round"/>
<path d="M63.6096 349.28C63.6096 349.28 66.5296 364.17 66.5296 369.75C66.5296 375.33 62.8096 385.43 62.8096 397.4C62.8096 409.37 66.2696 441 66.2696 441L79.0296 441.53C79.0296 441.53 82.7496 402.72 86.7396 393.68C90.7296 384.64 92.3196 365.76 92.3196 360.44C92.4609 356.564 93.0857 352.721 94.1796 349L63.6096 349.28Z" fill="#263238" stroke="#263238" stroke-linecap="round" stroke-linejoin="round"/>
<path d="M94.5196 227.51C94.5196 227.51 102.76 282.02 105.69 292.12C108.62 302.22 120 346.35 120 346.35C109.636 350.864 98.5764 353.57 87.2996 354.35C68.4296 355.68 43.9696 354.08 36.7896 350.89C29.6096 347.7 24.5596 345.58 24.5596 345.58L32.2696 306.23C32.2696 306.23 49.0196 259.17 49.0196 248.54C49.0196 237.91 47.9996 227 54.1096 219C60.2196 211 67.3996 207.3 72.4496 208.89C77.4996 210.48 94.5196 227.51 94.5196 227.51Z" fill="#ABABAB"/>
<path d="M111 311.82C110.92 311.5 110.83 311.18 110.75 310.82C108.98 311.26 107.22 311.68 105.48 312.05L107.87 307.13L110.65 310.43C110.44 309.66 110.24 308.9 110.04 308.16L108.47 306.28C108.8 306.21 109.14 306.12 109.47 306.03C109.38 305.71 109.3 305.39 109.21 305.03C74.5295 313.4 46.9695 308.62 32.8095 304.65C32.4795 305.6 32.2895 306.13 32.2895 306.13L32.1595 306.79L34.3595 311.19C33.3595 310.92 32.3595 310.64 31.4595 310.38L31.2695 311.38C44.1885 315.069 57.5642 316.914 70.9995 316.86C84.4895 316.832 97.9244 315.14 111 311.82ZM107 306.66L104.55 311.66L100.4 307.96C102.586 307.593 104.786 307.16 107 306.66ZM103.86 312.44C100.86 313.06 97.9295 313.58 95.0495 314.02L99.7295 308.76L103.86 312.44ZM98.7895 308.31L93.9895 313.71L90.7995 309.51C93.4262 309.17 96.0962 308.77 98.8095 308.31H98.7895ZM93.1795 314.31C89.8695 314.77 86.6595 315.12 83.5295 315.37L89.9995 310L93.1795 314.31ZM88.6995 309.76L82.4895 314.94L77.1795 310.63C80.8995 310.48 84.7495 310.19 88.7195 309.75L88.6995 309.76ZM32.6995 305.76C35.0295 306.41 37.6995 307.08 40.6995 307.71L35.3495 311.11L32.6995 305.76ZM36.1995 311.76L40.9595 308.76L44.4895 313.57C41.4795 313 38.7095 312.36 36.2395 311.75L36.1995 311.76ZM41.5695 307.87C44.5695 308.48 47.9095 309.05 51.5695 309.52L45.7195 313.47L41.5695 307.87ZM46.7795 313.93L52.1295 310.32L57.0495 315.24C53.4095 314.89 49.9995 314.44 46.8195 313.92L46.7795 313.93ZM52.9995 309.68C55.9995 310.04 59.1695 310.32 62.5195 310.51L57.9995 314.7L52.9995 309.68ZM58.7695 315.37L63.2195 311.23L68.6295 315.84C65.1395 315.79 61.8495 315.62 58.7295 315.37H58.7695ZM63.9995 310.58C66.2795 310.68 68.6295 310.75 71.0595 310.75C72.1995 310.75 73.3595 310.75 74.5395 310.7L69.2995 315.1L63.9995 310.58ZM75.9295 310.85L81.6695 315.5C77.5895 315.78 73.6695 315.88 69.9495 315.86L75.9295 310.85Z" fill="white"/>
<path d="M117.16 335.25C117.01 334.67 116.85 334.08 116.7 333.48L113.88 330.05L115.67 329.54C115.58 329.22 115.5 328.9 115.42 328.54C114.61 328.76 113.8 329 113 329.21C112.95 329.2 112.899 329.2 112.85 329.21C112.793 329.234 112.74 329.264 112.69 329.3C71.7699 340.08 40.2399 332.38 27.9799 328.3L27.7799 329.3C28.9299 329.68 30.2299 330.09 31.6999 330.51L26.9999 334.11H26.8699L26.6699 335.11C26.7316 335.168 26.8075 335.209 26.8901 335.228C26.9726 335.248 27.0588 335.245 27.1399 335.22C34.6999 337.79 50.1399 341.95 71.0399 341.95C86.6525 341.906 102.18 339.65 117.16 335.25ZM113.22 330.83L116.22 334.47C114.84 334.87 113.46 335.25 112.1 335.6L113.22 330.83ZM112.28 330.47L111.28 334.73L108.48 331.41C109.74 331.11 111 330.8 112.28 330.47ZM110.94 335.89C109.11 336.36 107.29 336.78 105.49 337.18L107.88 332.25L110.94 335.89ZM107 331.74L104.55 336.8L100.4 333.1C102.59 332.7 104.79 332.24 107 331.74ZM103.86 337.52C100.86 338.14 97.9299 338.67 95.0499 339.1L99.7299 333.84L103.86 337.52ZM98.7899 333.39L93.9899 338.79L90.7999 334.59C93.4266 334.263 96.0966 333.863 98.8099 333.39H98.7899ZM93.1799 339.39C89.8699 339.85 86.6599 340.2 83.5299 340.45L89.9999 335.1L93.1799 339.39ZM88.6999 334.84L82.5099 340L77.1999 335.7C80.8999 335.56 84.7499 335.27 88.7199 334.83L88.6999 334.84ZM28.0999 334.51L31.9999 331.56L34.3899 336.35C31.9399 335.71 29.8499 335.07 28.1199 334.5L28.0999 334.51ZM32.7199 330.84C35.0499 331.48 37.7199 332.15 40.7199 332.78L35.3699 336.18L32.7199 330.84ZM36.2199 336.84L40.9799 333.84L44.5099 338.65C41.4799 338.05 38.7099 337.45 36.2399 336.83L36.2199 336.84ZM41.5899 332.95C44.5899 333.57 47.9299 334.13 51.5899 334.6L45.7399 338.6L41.5899 332.95ZM46.8199 339L52.1699 335.39L57.0899 340.31C53.4099 340 49.9999 339.52 46.8199 339ZM52.9999 334.76C55.9999 335.12 59.1699 335.41 62.5199 335.59L57.9999 339.78L52.9999 334.76ZM58.7699 340.45L63.2199 336.31L68.6299 340.93C65.1399 340.87 61.8499 340.7 58.7299 340.45H58.7699ZM63.9999 335.66C66.2799 335.767 68.6333 335.823 71.0599 335.83C72.1999 335.83 73.3599 335.83 74.5399 335.83L69.2999 340.22L63.9999 335.66ZM75.9299 335.93L81.6699 340.58C77.5899 340.86 73.6699 340.96 69.9499 340.94L75.9299 335.93Z" fill="white"/>
<path d="M119.329 343.6L119.079 342.6C80.4692 356.1 36.9492 345.96 25.1492 342.74L24.9492 343.74C41.3505 348.097 58.2395 350.348 75.2092 350.44C89.2892 350.45 104.659 348.71 119.329 343.6Z" fill="white"/>
<path d="M25.69 340L25.5 341C41.7299 345.258 58.431 347.459 75.21 347.55C89.07 347.55 104.21 345.86 118.63 340.94C118.55 340.63 118.47 340.3 118.38 339.94C80.52 352.89 38.16 343.34 25.69 340Z" fill="white"/>
<path d="M113.999 323.2C113.909 322.88 113.829 322.56 113.749 322.2C79.8693 333.5 40.7493 326.08 28.9293 323.37L28.7393 324.37C43.0325 327.577 57.6309 329.226 72.2793 329.29C85.6093 329.31 100.239 327.79 113.999 323.2Z" fill="white"/>
<path d="M113.47 321.15C113.39 320.83 113.3 320.51 113.22 320.15C79.8499 331.08 41.5999 324.01 29.3599 321.24L29.1699 322.24C43.3294 325.386 57.7853 327.005 72.2899 327.07C85.4399 327.09 99.8599 325.6 113.47 321.15Z" fill="white"/>
<path d="M94.5196 227.51C94.5196 227.51 102.76 282.02 105.69 292.12C108.62 302.22 120 346.35 120 346.35C109.636 350.864 98.5764 353.57 87.2996 354.35C68.4296 355.68 43.9696 354.08 36.7896 350.89C29.6096 347.7 24.5596 345.58 24.5596 345.58L32.2696 306.23C32.2696 306.23 49.0196 259.17 49.0196 248.54C49.0196 237.91 47.9996 227 54.1096 219C60.2196 211 67.3996 207.3 72.4496 208.89C77.4996 210.48 94.5196 227.51 94.5196 227.51Z" stroke="#263238" stroke-linecap="round" stroke-linejoin="round"/>
<path d="M60.4199 431.16H81.6899L81.4199 447.65C81.4199 447.65 93.6499 455.36 96.5799 456.42C99.5099 457.48 101.1 459.88 100.83 460.67C100.56 461.46 99.2399 462 99.2399 462H62.5499C61.7748 459.878 61.501 457.605 61.7499 455.36C62.1576 453.183 62.7806 451.053 63.6099 449L60.4199 431.16Z" fill="#01A76A" stroke="#263238" stroke-linecap="round" stroke-linejoin="round"/>
<path d="M64.48 204.12C64.48 204.12 49.86 214.49 46.4 225.92C42.94 237.35 41.88 258.62 41.08 263.41C40.28 268.2 27.79 312.32 27.79 312.32C27.79 312.32 38.16 319.5 56.5 321.32C74.84 323.14 95.05 318.66 95.85 318.66C96.65 318.66 89.2 227 89.47 226.19C89.74 225.38 74.58 207.84 71.92 205.45C69.26 203.06 64.48 204.12 64.48 204.12Z" fill="white" stroke="#263238" stroke-linecap="round" stroke-linejoin="round"/>
<path d="M97.2895 186.48C97.2895 186.48 97.6495 196.37 99.4795 199.67C101.31 202.97 100.95 206.26 96.1895 205.16C91.4295 204.06 85.1895 194.16 84.4695 188.31C83.7495 182.46 94.3595 179.52 97.2895 186.48Z" fill="#263238" stroke="#263238" stroke-linecap="round" stroke-linejoin="round"/>
<path d="M89 217.16L97.57 289.25L113.15 287.42L94.88 216.84C94.88 216.84 91.2 212.14 89 217.16Z" fill="#01A76A" stroke="#263238" stroke-linecap="round" stroke-linejoin="round"/>
<path d="M97.4692 155.74C98.5892 157.837 99.5713 160.005 100.409 162.23C101.279 164.86 101.129 169.74 101.409 170.54C101.689 171.34 105.599 176.05 105.619 177C105.639 177.95 102.069 179.82 102.069 179.82C102.069 179.82 101.129 186.33 100.449 189.08C99.7692 191.83 99.8892 193.37 96.2792 193.31C92.6692 193.25 87.7592 191.82 81.6392 188.65C75.5192 185.48 70.9692 180.86 69.7892 174.55C68.6092 168.24 84.9992 156 87.4092 154.36C89.8192 152.72 97.4692 155.74 97.4692 155.74Z" fill="white" stroke="#263238" stroke-linecap="round" stroke-linejoin="round"/>
<path d="M99.0496 170.68C98.9896 171.92 98.5296 172.91 98.0496 172.89C97.5696 172.87 97.1696 171.83 97.2296 170.59C97.2896 169.35 97.7596 168.35 98.2296 168.37C98.6996 168.39 99.1096 169.43 99.0496 170.68Z" fill="#263238"/>
<path d="M94.7393 167.65C94.7393 167.65 96.5293 163.07 99.3193 164.65" stroke="#263238" stroke-linecap="round" stroke-linejoin="round"/>
<path d="M101.109 182.17C101.109 182.17 97.7295 183.56 95.9395 180.78" stroke="#263238" stroke-linecap="round" stroke-linejoin="round"/>
<path d="M67.2597 192.74C67.2597 192.74 98.5097 200.82 97.9997 204.48C97.4897 208.14 96.7297 218.81 92.6397 219.35C88.5497 219.89 57.4697 208 55.1397 207.25C52.8097 206.5 57.0297 195.82 59.3697 193.13C61.7097 190.44 67.2597 192.74 67.2597 192.74Z" fill="#01A76A" stroke="#263238" stroke-linecap="round" stroke-linejoin="round"/>
<path d="M83.6792 164.61C83.6792 164.61 87.1592 187.61 91.2592 196.86C95.3592 206.11 99.5992 208.66 98.0392 210.46C96.4792 212.26 87.4792 206.46 87.4792 206.46C87.4792 206.46 95.1592 217.38 90.0592 220.35C84.9592 223.32 71.9992 216.94 69.2492 214.6L66.5592 212.26C66.5592 212.26 65.6992 219.26 56.8192 223.48C47.9392 227.7 35.6992 220.42 43.6792 210.48C51.6592 200.54 54.9792 189.12 53.5692 182.23C52.1592 175.34 75.2892 156.86 83.6792 164.61Z" fill="#263238" stroke="#263238" stroke-linecap="round" stroke-linejoin="round"/>
<path d="M58.6191 240.27C60.6191 244.77 65.0491 248.85 68.4091 252.39C73.7691 258.04 80.1491 262.39 85.7491 267.75C86.7491 268.75 97.8091 278.32 99.1291 277.75C99.1291 277.75 110.129 272.75 117.879 265.61C125.629 258.47 144.879 236.39 144.879 236.39C149.679 235.14 157.339 228.68 157.339 228.68L164.459 227.74C164.682 227.693 164.879 227.565 165.012 227.381C165.146 227.197 165.207 226.971 165.183 226.744C165.16 226.518 165.053 226.309 164.884 226.157C164.716 226.005 164.496 225.92 164.269 225.92L157.659 226.44L166.659 221.75C166.763 221.696 166.855 221.622 166.93 221.533C167.006 221.444 167.062 221.34 167.098 221.229C167.133 221.117 167.146 221 167.136 220.884C167.126 220.767 167.093 220.654 167.039 220.55C166.944 220.377 166.794 220.24 166.614 220.161C166.433 220.081 166.231 220.064 166.039 220.11L156.399 222.61L164.589 218.12C164.829 217.987 165.007 217.765 165.083 217.501C165.159 217.238 165.127 216.955 164.994 216.715C164.862 216.475 164.639 216.297 164.376 216.222C164.112 216.146 163.829 216.177 163.589 216.31L154.189 221.01L158.849 217.01L160.409 215.06C160.5 214.918 160.542 214.75 160.527 214.582C160.512 214.414 160.442 214.256 160.328 214.133C160.213 214.009 160.061 213.927 159.894 213.899C159.728 213.872 159.557 213.9 159.409 213.98L157.549 215.36C154.159 217.93 146.039 224.11 145.279 225.12C144.279 226.4 139.449 231.94 139.449 231.94C139.449 231.94 131.179 238.55 120.149 246.27C114.979 250.036 109.534 253.408 103.859 256.36C100.499 252.13 90.3991 239.15 86.4191 231.2C83.4141 225.388 78.4208 220.849 72.3491 218.41" fill="white"/>
<path d="M58.6191 240.27C60.6191 244.77 65.0491 248.85 68.4091 252.39C73.7691 258.04 80.1491 262.39 85.7491 267.75C86.7491 268.75 97.8091 278.32 99.1291 277.75C99.1291 277.75 110.129 272.75 117.879 265.61C125.629 258.47 144.879 236.39 144.879 236.39C149.679 235.14 157.339 228.68 157.339 228.68L164.459 227.74C164.682 227.693 164.879 227.565 165.012 227.381C165.146 227.197 165.207 226.971 165.183 226.744C165.16 226.518 165.053 226.309 164.884 226.157C164.716 226.005 164.496 225.92 164.269 225.92L157.659 226.44L166.659 221.75C166.763 221.696 166.855 221.622 166.93 221.533C167.006 221.444 167.062 221.34 167.098 221.229C167.133 221.117 167.146 221 167.136 220.884C167.126 220.767 167.093 220.654 167.039 220.55C166.944 220.377 166.794 220.24 166.614 220.161C166.433 220.081 166.231 220.064 166.039 220.11L156.399 222.61L164.589 218.12C164.829 217.987 165.007 217.765 165.083 217.501C165.159 217.238 165.127 216.955 164.994 216.715C164.862 216.475 164.639 216.297 164.376 216.222C164.112 216.146 163.829 216.177 163.589 216.31L154.189 221.01L158.849 217.01L160.409 215.06C160.5 214.918 160.542 214.75 160.527 214.582C160.512 214.414 160.442 214.256 160.328 214.133C160.213 214.009 160.061 213.927 159.894 213.899C159.728 213.872 159.557 213.9 159.409 213.98L157.549 215.36C154.159 217.93 146.039 224.11 145.279 225.12C144.279 226.4 139.449 231.94 139.449 231.94C139.449 231.94 131.179 238.55 120.149 246.27C114.979 250.036 109.534 253.408 103.859 256.36C100.499 252.13 90.3991 239.15 86.4191 231.2C83.4141 225.388 78.4208 220.849 72.3491 218.41" stroke="#263238" stroke-linecap="round" stroke-linejoin="round"/>
<path d="M165.999 220.09L156.359 222.59L164.549 218.1C164.789 217.967 164.967 217.745 165.043 217.481C165.119 217.218 165.087 216.935 164.954 216.695C164.822 216.455 164.599 216.277 164.336 216.201C164.072 216.126 163.789 216.157 163.549 216.29L154.149 220.99L158.809 216.99L160.369 215.04C160.46 214.898 160.502 214.73 160.487 214.562C160.472 214.394 160.402 214.236 160.288 214.113C160.173 213.989 160.021 213.907 159.855 213.879C159.688 213.852 159.518 213.88 159.369 213.96L157.509 215.34C154.119 217.91 145.999 224.09 145.239 225.1C144.239 226.38 139.409 231.92 139.409 231.92C139.409 231.92 131.139 238.53 120.109 246.25C115.859 249.25 112.419 251.43 109.779 253.02L116.509 266.8C116.979 266.39 117.449 265.98 117.909 265.55C125.629 258.39 144.909 236.33 144.909 236.33C149.709 235.08 157.369 228.62 157.369 228.62L164.489 227.68C164.712 227.633 164.909 227.505 165.042 227.321C165.176 227.137 165.237 226.911 165.214 226.684C165.19 226.458 165.083 226.249 164.915 226.097C164.746 225.945 164.527 225.86 164.299 225.86L157.689 226.38L166.689 221.69C166.793 221.636 166.885 221.562 166.96 221.473C167.036 221.384 167.093 221.28 167.128 221.169C167.163 221.057 167.176 220.94 167.166 220.824C167.156 220.707 167.123 220.594 167.069 220.49C166.965 220.31 166.801 220.171 166.606 220.098C166.411 220.026 166.196 220.023 165.999 220.09Z" fill="white" stroke="#263238" stroke-linecap="round" stroke-linejoin="round"/>
<path d="M53.5694 182.25C53.5694 182.25 46.8194 183.31 43.1694 179.36C39.5194 175.41 45.2394 170.44 51.0894 160.25C56.9394 150.06 60.7294 140.44 72.0894 138.04C83.4494 135.64 97.0894 144.95 100.149 147.44C103.209 149.93 103.259 152.19 101.789 152.8C101.789 152.8 65.7194 167.14 53.9094 183.8" fill="#01A76A"/>
<path d="M53.5694 182.25C53.5694 182.25 46.8194 183.31 43.1694 179.36C39.5194 175.41 45.2394 170.44 51.0894 160.25C56.9394 150.06 60.7294 140.44 72.0894 138.04C83.4494 135.64 97.0894 144.95 100.149 147.44C103.209 149.93 103.259 152.19 101.789 152.8C101.789 152.8 65.7194 167.14 53.9094 183.8" stroke="#263238" stroke-linecap="round" stroke-linejoin="round"/>
<path d="M71.2295 167.05L53.2295 174.93" stroke="#263238" stroke-linecap="round" stroke-linejoin="round"/>
<path d="M53.5591 185.7C53.5591 185.7 68.9991 172.14 83.6991 166.05C98.3991 159.96 103.999 159.39 103.999 157.37C103.999 155.35 101.819 152.8 101.819 152.8C101.819 152.8 77.9291 161.8 68.4791 168.89C59.0291 175.98 47.9991 181.37 53.5591 185.7Z" fill="#01A76A" stroke="#263238" stroke-linecap="round" stroke-linejoin="round"/>
<path d="M22 462H488" stroke="#263238" stroke-linecap="round" stroke-linejoin="round"/>
</svg>
